<svg xmlns="http://www.w3.org/2000/svg" width="128" height="128" viewBox="0 0 128 128">
    <defs>
        <style>

            .cls-2 {
            fill: #556068;
            fill-rule: evenodd;
            }
        </style>
    </defs>
    <path class="cls-2"
          d="M2.531 33.75C1.139 33.75 0 32.611 0 31.219V22.781C0 21.389 1.139 20.25 2.531 20.25H7.2V10.125C7.2 4.535 11.69 0 17.28 0H85.898C91.488 0 96.023 4.535 96.023 10.125V97.875C96.023 103.465 91.488 108 85.898 108H17.28C11.69 108 7.2 103.465 7.2 97.875V87.75H2.531C1.139 87.75 0 86.611 0 85.219V76.781C0 75.389 1.139 74.25 2.531 74.25H7.2V60.75H2.531C1.139 60.75 0 59.611 0 58.219V49.781C0 48.389 1.139 47.25 2.531 47.25H7.2V33.75H2.531ZM67.306 89.998 67.16 90C64.53 90.003 62.4 87.935 62.4 85.379V20.587C62.4 20.031 62.447 19.11 62.755 18.639 65.252 14.833 77.206 28.695 78 42.748 78 49.452 77.319 54.925 72.187 57.22 71.668 57.451 71.245 58.052 71.261 58.606L71.948 85.363C72.013 87.919 69.935 89.993 67.306 89.998ZM26.4 35.117C26.4 42.251 29.822 48.485 35.106 50.749 35.642 50.98 36.08 51.592 36.062 52.176L35.042 84.722C34.97 87.636 37.273 90 40.189 90 43.103 90 45.408 87.636 45.334 84.722L44.314 52.176C44.297 51.593 44.734 50.98 45.27 50.75 50.555 48.486 53.977 42.253 53.977 35.117 53.977 26.133 50.886 18.269 48.709 18.005 46.971 17.917 46.28 19.093 46.28 20.434L46.278 34.706C46.278 35.628 45.55 36.377 44.655 36.377H44.558C43.662 36.377 42.934 35.628 42.934 34.706L42.931 20.434C42.931 19.093 41.855 18.005 40.554 18.005H39.823C38.522 18.005 37.446 19.093 37.446 20.434L37.443 34.706C37.443 35.628 36.715 36.377 35.821 36.377H35.722C34.827 36.377 34.099 35.628 34.099 34.706L34.098 20.434C34.098 19.093 33.407 17.917 31.668 18.005 29.493 18.269 26.4 26.133 26.4 35.117Z"/>
</svg>
