<svg xmlns="http://www.w3.org/2000/svg" width="128" height="128" viewBox="0 0 128 128">
    <defs>
        <style>

            .cls-2 {
            fill: #556068;
            fill-rule: evenodd;
            }
        </style>
    </defs>
    <path class="cls-2"
          d="M91.118 66.12C91.118 62.251 88.045 59.178 84.176 59.178 81.673 59.178 79.51 60.43 78.258 62.479V62.251C78.258 58.381 75.185 55.309 71.316 55.309 68.812 55.309 66.65 56.561 65.398 58.609V58.495C65.398 54.626 62.326 51.553 58.456 51.553 55.953 51.553 53.79 52.805 52.539 54.854V31.41C52.539 29.589 51.856 27.768 50.49 26.516 49.124 25.264 47.417 24.468 45.596 24.468 41.727 24.468 38.654 27.541 38.654 31.41V74.314C38.654 74.769 38.427 74.997 38.085 75.224 37.744 75.338 37.289 75.338 37.061 74.997L30.005 67.941C27.615 65.551 23.86 65.21 21.129 67.144 19.535 68.282 18.397 69.989 18.056 71.924 17.828 73.859 18.284 75.907 19.649 77.387L37.175 98.554C42.182 104.586 49.466 108 57.204 108H68.243C74.389 108 80.079 105.61 84.404 101.285 88.728 96.961 91.118 91.271 91.118 85.126V66.12ZM24 12H84C90.628 12 96 17.373 96 24V36C96 41.398 92.436 45.964 87.532 47.472 92.276 48.313 96.398 50.907 99.209 54.566 104.576 50.165 108 43.482 108 36V24C108 10.745 97.255 0 84 0H24C10.745 0 0 10.745 0 24V36C0 45.578 5.611 53.845 13.724 57.695 13.866 57.588 14.009 57.483 14.154 57.38L14.192 57.352C17.955 54.687 22.371 53.597 26.654 53.959V48H24C17.373 48 12 42.627 12 36V24C12 17.373 17.373 12 24 12Z"/>
</svg>
