<svg xmlns="http://www.w3.org/2000/svg" width="128" height="128" viewBox="0 0 128 128">
    <defs>
        <style>

            .cls-2 {
            fill: #556068;
            fill-rule: evenodd;
            }
        </style>
    </defs>
    <path class="cls-2"
          d="M107.984 21.376C107.271 12.183 83.375 4.8 54 4.8 24.625 4.8.729 12.183.016 21.376.005 21.236 0 21.096 0 20.955V28.332C0 37.367 22.394 44.797 50.661 45.343 49.269 52.124 46.872 65.119 46.616 75.327 44.465 75.531 42.324 75.83 40.199 76.224 39.804 76.294 39.418 76.374 39.05 76.462 36.263 76.981 33.569 77.897 31.053 79.184 30.978 79.231 30.901 79.274 30.824 79.319 30.684 79.4 30.544 79.48 30.416 79.571 28.684 80.602 27.724 81.818 27.724 83.095 27.725 83.324 27.759 83.553 27.823 83.773 27.872 83.996 27.957 84.211 28.074 84.407 29.977 88.108 39.992 90.97 52.305 91.199H54.36C58.876 91.207 63.383 90.802 67.822 89.993L68.117 89.935C68.409 89.877 68.695 89.821 68.971 89.755 71.763 89.233 74.462 88.316 76.985 87.033 77.207 86.922 77.42 86.795 77.623 86.654 79.337 85.579 80.315 84.364 80.315 83.069 80.328 82.871 80.319 82.673 80.288 82.478 80.24 82.259 80.159 82.048 80.045 81.853 78.466 78.721 71.093 76.178 61.426 75.308 61.165 65.104 58.771 52.119 57.38 45.342 85.628 44.793 108 37.407 108 28.377V20.955C108 21.096 107.995 21.236 107.984 21.376Z"/>
</svg>
