<svg width="24" height="24" viewBox="0 0 24 24" fill="none" xmlns="http://www.w3.org/2000/svg">
<path fill-rule="evenodd" clip-rule="evenodd" d="M21.2894 16.2746C19.6813 18.5782 18.5158 20.3846 15.2293 18.5964C15.2293 18.5964 16.53 16.1186 19.5779 15.1058C19.5779 15.1058 16.3675 15.1026 14.1737 17.806C14.1737 17.806 13.8656 15.0434 16.1855 13.774C18.5073 12.5064 23.1049 13.8169 24 14.1224C24 14.1224 22.8937 13.9696 21.2894 16.2746ZM6.35329 9.72434C10.4907 13.5107 10.7884 18.3962 10.7884 18.3962C4.24462 18.913 3.68106 15.1936 2.77753 10.3711C1.87205 5.54277 0 5 0 5C1.64845 5.1547 9.93944 6.33254 12.7326 10.0116C15.5231 13.6934 13.0342 17.8847 13.0342 17.8847C11.4845 12.0079 6.35329 9.72434 6.35329 9.72434Z" fill="#191E23"/>
</svg>
