<svg width="24" height="16" viewBox="0 0 24 16" fill="none" xmlns="http://www.w3.org/2000/svg">
    <path fill-rule="evenodd" clip-rule="evenodd" d="M21.2894 11.868C19.6813 14.2929 18.5158 16.1944 15.2293 14.312C15.2293 14.312 16.53 11.7038 19.5779 10.6377C19.5779 10.6377 16.3675 10.6343 14.1737 13.48C14.1737 13.48 13.8656 10.572 16.1855 9.23574C18.5073 7.90149 23.1049 9.2809 24 9.60249C24 9.60249 22.8937 9.4417 21.2894 11.868ZM6.35329 4.97299C10.4907 8.95863 10.7884 14.1013 10.7884 14.1013C4.24462 14.6453 3.68106 10.7301 2.77753 5.6538C1.87205 0.571333 0 0 0 0C1.64845 0.162847 9.93944 1.40267 12.7326 5.27542C15.5231 9.1509 13.0342 13.5628 13.0342 13.5628C11.4845 7.37669 6.35329 4.97299 6.35329 4.97299Z" fill="#3E4957"/>
</svg>

